<svg xmlns="http://www.w3.org/2000/svg" viewBox="0 0 16 16" width="16" height="16">
  <defs>
    <linearGradient id="g" x1="0" y1="0" x2="1" y2="1">
      <stop offset="0%" stop-color="#7C3AED"/>
      <stop offset="100%" stop-color="#3B82F6"/>
    </linearGradient>
  </defs>
  <!-- DNA double helix -->
  <path d="M5 1.5 C5 4, 11 4, 11 6.5 C11 9, 5 9, 5 11.5 C5 14, 11 14, 11 14.5" stroke="url(#g)" stroke-width="1.5" fill="none" stroke-linecap="round"/>
  <path d="M11 1.5 C11 4, 5 4, 5 6.5 C5 9, 11 9, 11 11.5 C11 14, 5 14, 5 14.5" stroke="url(#g)" stroke-width="1.5" fill="none" stroke-linecap="round" opacity="0.6"/>
  <!-- Rungs -->
  <line x1="6" y1="4" x2="10" y2="4" stroke="url(#g)" stroke-width="1" opacity="0.5"/>
  <line x1="6" y1="6.5" x2="10" y2="6.5" stroke="url(#g)" stroke-width="1" opacity="0.5"/>
  <line x1="6" y1="9" x2="10" y2="9" stroke="url(#g)" stroke-width="1" opacity="0.5"/>
  <line x1="6" y1="11.5" x2="10" y2="11.5" stroke="url(#g)" stroke-width="1" opacity="0.5"/>
</svg>
